<svg xmlns="http://www.w3.org/2000/svg" viewBox="0 0 120 120" id="IosWeather"><defs><linearGradient id="a" x1="50%" x2="50%" y1="0%" y2="100%"><stop offset="0%" stop-color="#167ffc" class="stopColor008ee7 svgShape"></stop><stop offset="100%" stop-color="#595bd4" class="stopColor00d6fa svgShape"></stop></linearGradient><linearGradient id="b" x1="50%" x2="50%" y1="0%" y2="100%"><stop offset="0%" stop-color="#fe9526" class="stopColorffcc51 svgShape"></stop><stop offset="100%" stop-color="#f29f48" class="stopColorf2da48 svgShape"></stop></linearGradient></defs><g fill="none" fill-rule="evenodd"><rect width="120" height="120" fill="url(#a)" rx="28"></rect><circle cx="40" cy="50" r="22" fill="url(#b)"></circle><path fill="#53d86a" d="M44 90h42v-.026c10.029-.52 18-8.816 18-18.974 0-10.493-8.507-19-19-19-1.389 0-2.743.15-4.048.432C78.195 44.051 70.304 38 61 38c-11.432 0-20.73 9.134-20.994 20.503C33.102 60.277 28 66.543 28 74c0 8.837 7.163 16 16 16z" opacity=".9" class="colorffffff svgShape"></path></g></svg>